<svg width="20" height="20" viewBox="0 0 20 20" fill="none" xmlns="http://www.w3.org/2000/svg">
<path d="M13.586 3.58599C13.7705 3.39497 13.9912 3.24261 14.2352 3.13779C14.4792 3.03297 14.7416 2.9778 15.0072 2.97549C15.2728 2.97319 15.5361 3.02379 15.7819 3.12435C16.0277 3.22491 16.251 3.37342 16.4388 3.5612C16.6266 3.74899 16.7751 3.97229 16.8756 4.21809C16.9762 4.46388 17.0268 4.72724 17.0245 4.9928C17.0222 5.25836 16.967 5.5208 16.8622 5.7648C16.7574 6.00881 16.605 6.2295 16.414 6.41399L15.621 7.20699L12.793 4.37899L13.586 3.58599ZM11.379 5.79299L3 14.172V17H5.828L14.208 8.62099L11.378 5.79299H11.379Z" fill="black"/>
</svg>
